<svg width="45" height="45" viewBox="0 0 45 45" fill="none" xmlns="http://www.w3.org/2000/svg">
<rect width="45" height="45" rx="22" fill="#FFE600"/>
<path d="M13.8483 24.418V16.172L12.7143 16.018C12.6583 15.85 12.6583 15.682 12.7143 15.514L14.6323 15.556H20.2883L20.3023 18.804C20.097 18.8413 19.9243 18.8413 19.7843 18.804L19.1263 16.27H15.3463V20.4L17.5863 20.358L17.9083 18.986C18.0483 18.9487 18.221 18.9487 18.4263 18.986C18.389 19.5087 18.3703 20.1107 18.3703 20.792C18.3703 21.4173 18.3843 22.024 18.4123 22.612C18.2443 22.668 18.0763 22.668 17.9083 22.612L17.6003 21.156L15.3463 21.114V26.084L16.6203 26.224C16.6577 26.364 16.6577 26.5367 16.6203 26.742C16.0323 26.714 15.3697 26.7 14.6323 26.7C14.0817 26.7 13.4143 26.7093 12.6303 26.728C12.5743 26.56 12.5743 26.392 12.6303 26.224L13.7923 26.056C13.8297 25.7013 13.8483 25.1553 13.8483 24.418ZM30.4533 22.948V17.88C30.4533 17.1427 30.4346 16.5967 30.3973 16.242L29.0953 16.074C29.0393 15.906 29.0393 15.738 29.0953 15.57C29.6833 15.598 30.2526 15.612 30.8033 15.612C31.41 15.612 31.9746 15.5933 32.4973 15.556C32.5346 15.7613 32.5346 15.934 32.4973 16.074L31.2233 16.214V26.7H30.4813L24.3073 18.342C24.018 17.9593 23.6773 17.46 23.2853 16.844C23.332 17.2733 23.3553 17.7913 23.3553 18.398V24.418C23.3553 25.1553 23.374 25.7013 23.4113 26.056L24.7133 26.224C24.7693 26.392 24.7693 26.56 24.7133 26.728C23.9106 26.7093 23.3413 26.7 23.0053 26.7C22.4546 26.7 21.89 26.714 21.3113 26.742C21.274 26.5367 21.274 26.364 21.3113 26.224L22.5853 26.084V17.838C22.5853 17.1007 22.5666 16.5547 22.5293 16.2L21.3673 16.032C21.3113 15.8733 21.3113 15.7147 21.3673 15.556H24.1113L29.7253 23.2C29.8 23.3027 29.8793 23.424 29.9633 23.564C30.0566 23.704 30.1546 23.872 30.2573 24.068C30.3693 24.264 30.458 24.4133 30.5233 24.516C30.4766 23.956 30.4533 23.4333 30.4533 22.948Z" fill="black"/>
</svg>
